HIERARCHY
ROOT hip
{
  OFFSET 0 0 0
  CHANNELS 6 Xposition Yposition Zposition Zrotation Yrotation Xrotation
  JOINT abdomen
  {
    OFFSET 0 20.6881 -0.73152
    CHANNELS 3 Zrotation Xrotation Yrotation
    JOINT chest
    {
      OFFSET 0 11.7043 -0.48768
      CHANNELS 3 Zrotation Xrotation Yrotation
      JOINT neck
      {
        OFFSET 0 22.1894 -2.19456
        CHANNELS 3 Zrotation Xrotation Yrotation
        JOINT head
        {
          OFFSET -0.24384 7.07133 1.2192
          CHANNELS 3 Zrotation Xrotation Yrotation
          JOINT leftEye
          {
            OFFSET 4.14528 8.04674 8.04672
            CHANNELS 3 Zrotation Xrotation Yrotation
            End Site
            {
              OFFSET 1 0 0
            }
          }
          JOINT rightEye
          {
            OFFSET -3.6576 8.04674 8.04672
            CHANNELS 3 Zrotation Xrotation Yrotation
            End Site
            {
              OFFSET 1 0 0
            }
          }
        }
      }
      JOINT rCollar
      {
        OFFSET -2.68224 19.2634 -4.8768
        CHANNELS 3 Zrotation Xrotation Yrotation
        JOINT rShldr
        {
          OFFSET -8.77824 -1.95073 1.46304
          CHANNELS 3 Zrotation Xrotation Yrotation
          JOINT rForeArm
          {
            OFFSET -28.1742 -1.7115 0.48768
            CHANNELS 3 Zrotation Xrotation Yrotation
            JOINT rHand
            {
              OFFSET -22.5879 0.773209 7.07136
              CHANNELS 3 Zrotation Xrotation Yrotation
              JOINT rThumb1
              {
                OFFSET -1.2192 -0.487915 3.41376
                CHANNELS 3 Zrotation Xrotation Yrotation
                JOINT rThumb2
                {
                  OFFSET -3.37035 -0.52449 3.41376
                  CHANNELS 3 Zrotation Xrotation Yrotation
                  End Site
                  {
                    OFFSET -1.78271 -1.18214 1.43049
                  }
                }
              }
              JOINT rIndex1
              {
                OFFSET -7.75947 0.938293 5.60832
                CHANNELS 3 Zrotation Xrotation Yrotation
                JOINT rIndex2
                {
                  OFFSET -2.54057 -0.884171 1.56538
                  CHANNELS 3 Zrotation Xrotation Yrotation
                  End Site
                  {
                    OFFSET -1.62519 -0.234802 1.16502
                  }
                }
              }
              JOINT rMid1
              {
                OFFSET -8.24714 1.18213 3.41376
                CHANNELS 3 Zrotation Xrotation Yrotation
                JOINT rMid2
                {
                  OFFSET -3.10165 -0.590103 1.0647
                  CHANNELS 3 Zrotation Xrotation Yrotation
                  End Site
                  {
                    OFFSET -2.48547 -0.328903 0.83742
                  }
                }
              }
              JOINT rRing1
              {
                OFFSET -8.82822 0.546677 1.51678
                CHANNELS 3 Zrotation Xrotation Yrotation
                JOINT rRing2
                {
                  OFFSET -2.60934 -0.819778 -0.0198488
                  CHANNELS 3 Zrotation Xrotation Yrotation
                  End Site
                  {
                    OFFSET -2.33842 -0.294052 0.168128
                  }
                }
              }
              JOINT rPinky1
              {
                OFFSET -8.27202 -0.0477905 -0.4584
                CHANNELS 3 Zrotation Xrotation Yrotation
                JOINT rPinky2
                {
                  OFFSET -1.82734 -0.647385 -0.700984
                  CHANNELS 3 Zrotation Xrotation Yrotation
                  End Site
                  {
                    OFFSET -1.69225 -0.51767 -0.607171
                  }
                }
              }
            }
          }
        }
      }
      JOINT lCollar
      {
        OFFSET 2.68224 19.2634 -4.8768
        CHANNELS 3 Zrotation Xrotation Yrotation
        JOINT lShldr
        {
          OFFSET 8.77824 -1.95073 1.46304
          CHANNELS 3 Zrotation Xrotation Yrotation
          JOINT lForeArm
          {
            OFFSET 28.1742 -1.7115 0.48768
            CHANNELS 3 Zrotation Xrotation Yrotation
            JOINT lHand
            {
              OFFSET 22.5879 0.773209 7.07136
              CHANNELS 3 Zrotation Xrotation Yrotation
              JOINT lThumb1
              {
                OFFSET 1.2192 -0.487915 3.41376
                CHANNELS 3 Zrotation Xrotation Yrotation
                JOINT lThumb2
                {
                  OFFSET 3.37035 -0.52449 3.41376
                  CHANNELS 3 Zrotation Xrotation Yrotation
                  End Site
                  {
                    OFFSET 1.78271 -1.18214 1.43049
                  }
                }
              }
              JOINT lIndex1
              {
                OFFSET 7.75947 0.938293 5.60832
                CHANNELS 3 Zrotation Xrotation Yrotation
                JOINT lIndex2
                {
                  OFFSET 2.54057 -0.884171 1.56538
                  CHANNELS 3 Zrotation Xrotation Yrotation
                  End Site
                  {
                    OFFSET 1.62519 -0.234802 1.16502
                  }
                }
              }
              JOINT lMid1
              {
                OFFSET 8.24714 1.18213 3.41376
                CHANNELS 3 Zrotation Xrotation Yrotation
                JOINT lMid2
                {
                  OFFSET 3.10165 -0.590103 1.0647
                  CHANNELS 3 Zrotation Xrotation Yrotation
                  End Site
                  {
                    OFFSET 2.48547 -0.328903 0.83742
                  }
                }
              }
              JOINT lRing1
              {
                OFFSET 8.82822 0.546677 1.51678
                CHANNELS 3 Zrotation Xrotation Yrotation
                JOINT lRing2
                {
                  OFFSET 2.60934 -0.819778 -0.0198488
                  CHANNELS 3 Zrotation Xrotation Yrotation
                  End Site
                  {
                    OFFSET 2.33842 -0.294052 0.168128
                  }
                }
              }
              JOINT lPinky1
              {
                OFFSET 8.27202 -0.0477905 -0.4584
                CHANNELS 3 Zrotation Xrotation Yrotation
                JOINT lPinky2
                {
                  OFFSET 1.82734 -0.647385 -0.700984
                  CHANNELS 3 Zrotation Xrotation Yrotation
                  End Site
                  {
                    OFFSET 1.69225 -0.51767 -0.607171
                  }
                }
              }
            }
          }
        }
      }
    }
  }
  JOINT rButtock
  {
    OFFSET -8.77824 4.35084 1.2192
    CHANNELS 3 Zrotation Xrotation Yrotation
    JOINT rThigh
    {
      OFFSET 0 -1.70687 -2.19456
      CHANNELS 3 Zrotation Xrotation Yrotation
      JOINT rShin
      {
        OFFSET 0 -36.8199 0.73152
        CHANNELS 3 Zrotation Xrotation Yrotation
        JOINT rFoot
        {
          OFFSET 0.73152 -45.1104 -5.12064
          CHANNELS 3 Zrotation Xrotation Yrotation
          End Site
          {
            OFFSET -1.1221 -3.69964 12.103
          }
        }
      }
    }
  }
  JOINT lButtock
  {
    OFFSET 8.77824 4.35084 1.2192
    CHANNELS 3 Zrotation Xrotation Yrotation
    JOINT lThigh
    {
      OFFSET 0 -1.70687 -2.19456
      CHANNELS 3 Zrotation Xrotation Yrotation
      JOINT lShin
      {
        OFFSET 0 -36.8199 0.73152
        CHANNELS 3 Zrotation Xrotation Yrotation
        JOINT lFoot
        {
          OFFSET -0.73152 -45.1104 -5.12064
          CHANNELS 3 Zrotation Xrotation Yrotation
          End Site
          {
            OFFSET 1.1221 -3.69964 12.103
          }
        }
      }
    }
  }
}
MOTION
Frames:	4
Frame Time:	0.00833333
127.764 85.1731 7.6132 0.0 0.0 0.0 0.512929 -0.00341809 0.0146931 0.141686 -0.0054019 0.0245502 3.14115e-15 -7.95139e-16 -3.10601e-17 9.39568e-15 3.18055e-15 -8.38623e-17 -0.0 0.0 0.0 -0.0 0.0 0.0 1.73806e-15 -6.98852e-18 2.48481e-16 3.45655e-14 2.54693e-16 3.97569e-16 5.70114e-13 -1.73539e-13 -5.40694e-14 6.48396e-12 1.46778e-13 -3.81667e-14 1.52938e-11 -6.48367e-14 -1.49486e-13 2.63966e-11 -1.11319e-13 -2.57625e-13 1.52969e-11 -6.59965e-14 -1.52667e-13 7.73091 5.47488 0.417314 1.52923e-11 -6.48038e-14 -1.49486e-13 2.90554 0.965183 0.102902 1.52995e-11 -6.47044e-14 -1.43125e-13 10.2786 0.731801 0.0259123 1.52865e-11 -6.20208e-14 -1.30403e-13 2.22167 -0.733487 -0.20892 1.54199e-15 -5.82377e-18 -2.48481e-16 3.14435e-14 -1.55301e-16 -7.95139e-16 5.62958e-13 1.65389e-13 1.27222e-14 6.48233e-12 -1.9138e-13 -5.08889e-14 1.52855e-11 -5.82946e-14 -1.33583e-13 2.64018e-11 -1.01778e-13 -2.40927e-13 1.52861e-11 -5.96354e-14 -1.20861e-13 -7.73091 5.47488 -0.417314 1.52864e-11 -5.84427e-14 -1.36764e-13 -2.90554 0.965183 -0.102902 1.52859e-11 -5.83433e-14 -1.39944e-13 -10.2786 0.731801 -0.0259123 1.52915e-11 -5.76476e-14 -1.49486e-13 -2.22167 -0.733487 0.20892 -2.03217e-16 0.0 -3.88251e-19 0.860062 -4.41146 -0.0729725 -0.00213162 2.4394 -0.0112567 -0.474499 1.97259 0.0938452 2.03217e-16 0.0 3.88251e-19 -0.0776378 -2.42096 0.0232532 0.00766742 -1.16603 0.0659962 0.465724 3.58744 -0.125208
119.458 84.389 1.12418 168.093 -86.5466 -172.142 -0.395302 3.5032 0.900867 -0.100306 0.57013 0.225301 2.37754 2.2322 0.920832 -2.2972 -7.23241 0.981593 -0.0 0.0 0.0 -0.0 0.0 0.0 2.13867e-15 2.92571e-13 9.01558e-15 21.238 13.8652 1.93846 -9.13782 -6.00424 11.6988 0.121052 -7.73106 -1.05115 -7.61629e-11 2.35872e-11 -2.08652e-10 -1.25741e-10 3.93303e-11 -3.6229e-10 -7.61586e-11 2.35865e-11 -2.08658e-10 7.73091 5.47488 0.417314 -7.61646e-11 2.35889e-11 -2.08651e-10 2.90554 0.965183 0.102902 -7.61571e-11 2.35882e-11 -2.08647e-10 10.2786 0.731801 0.0259123 -7.61685e-11 2.35916e-11 -2.08637e-10 2.22167 -0.733487 -0.20892 1.99635e-15 2.92569e-13 8.56948e-15 -20.7967 9.20681 -2.48564 4.18009 -1.89131 -6.53771 -0.00232659 1.0701 -0.150298 1.56227e-10 -4.56943e-12 -2.39913e-10 2.68416e-10 -7.90842e-12 -4.15381e-10 1.56226e-10 -4.57049e-12 -2.399e-10 -7.73091 5.47488 -0.417314 1.56227e-10 -4.57032e-12 -2.39914e-10 -2.90554 0.965183 -0.102902 1.56225e-10 -4.57038e-12 -2.39916e-10 -10.2786 0.731801 -0.0259123 1.56233e-10 -4.56973e-12 -2.39924e-10 -2.22167 -0.733487 0.20892 -2.03217e-16 0.0 -3.88251e-19 0.798211 -6.22992 3.67219 0.0504789 9.7424 0.193022 -1.91465 -5.11761 -8.65912 2.03217e-16 0.0 3.88251e-19 0.680263 -4.23833 -3.43563 -0.02125 6.85653 -0.0955149 1.05014 -1.53466 5.28276
119.541 84.3771 1.40779 168.85 -86.4699 -172.795 -1.46232 7.20172 1.84041 -0.36151 1.18244 0.435772 4.81126 4.60161 1.89602 -4.44697 -14.8947 2.06733 -0.0 0.0 0.0 -0.0 0.0 0.0 3.49381e-15 6.38661e-13 1.9776e-14 42.5443 28.4661 4.41577 -16.1618 -11.5088 24.4526 -0.0704726 -15.8894 -2.22712 -1.82526e-10 5.28404e-11 -4.51572e-10 -3.02668e-10 8.82745e-11 -7.84107e-10 -1.82521e-10 5.28402e-11 -4.5158e-10 7.73091 5.47488 0.417314 -1.82528e-10 5.2844e-11 -4.51569e-10 2.90554 0.965183 0.102902 -1.8252e-10 5.28424e-11 -4.51567e-10 10.2786 0.731801 0.0259123 -1.8253e-10 5.28467e-11 -4.5156e-10 2.22167 -0.733487 -0.20892 3.408e-15 6.38655e-13 1.93815e-14 -41.8857 18.8622 -5.32228 8.14239 -3.81514 -13.4865 0.00132054 2.19933 -0.309078 3.21351e-10 -8.29853e-12 -5.11536e-10 5.52022e-10 -1.43596e-11 -8.85683e-10 3.21349e-10 -8.29933e-12 -5.11523e-10 -7.73091 5.47488 -0.417314 3.21351e-10 -8.30032e-12 -5.11535e-10 -2.90554 0.965183 -0.102902 3.21346e-10 -8.30056e-12 -5.11537e-10 -10.2786 0.731801 -0.0259123 3.21357e-10 -8.29998e-12 -5.11543e-10 -2.22167 -0.733487 0.20892 -2.03217e-16 0.0 -3.88251e-19 0.993181 -8.10354 7.64384 0.0469756 17.4706 0.422981 -5.80074 -12.1168 -18.2574 2.03217e-16 0.0 3.88251e-19 1.24787 -6.12901 -7.10082 -0.00116039 15.3434 -0.274522 2.71476 -6.8294 11.0616
119.609 84.3755 1.67411 173.441 -86.4561 -177.377 -2.54178 10.5062 2.71369 -0.596394 1.7211 0.627053 6.91621 6.68966 2.77934 -6.10046 -21.6708 3.14374 -0.0 0.0 0.0 -0.0 0.0 0.0 2.9399e-15 8.77728e-13 2.65498e-14 60.1131 41.372 7.53299 -20.3644 -14.9969 36.3232 -0.550765 -23.1605 -3.39899 -2.59076e-10 7.08913e-11 -6.25658e-10 -4.30015e-10 1.18213e-10 -1.08636e-09 -2.59069e-10 7.08915e-11 -6.25669e-10 7.73091 5.47488 0.417314 -2.59078e-10 7.08963e-11 -6.25655e-10 2.90554 0.965183 0.102902 -2.5907e-10 7.0894e-11 -6.25654e-10 10.2786 0.731801 0.0259123 -2.59079e-10 7.08989e-11 -6.25649e-10 2.22167 -0.733487 -0.20892 2.90508e-15 8.7772e-13 2.62054e-14 -59.7447 27.3989 -8.29701 11.2687 -5.37904 -19.6927 0.00988516 3.21022 -0.451525 4.38109e-10 -1.35917e-11 -7.19471e-10 7.52444e-10 -2.35217e-11 -1.24566e-09 4.38106e-10 -1.35922e-11 -7.19458e-10 -7.73091 5.47488 -0.417314 4.38109e-10 -1.35941e-11 -7.19468e-10 -2.90554 0.965183 -0.102902 4.38103e-10 -1.35945e-11 -7.19469e-10 -10.2786 0.731801 -0.0259123 4.38116e-10 -1.35939e-11 -7.19473e-10 -2.22167 -0.733487 0.20892 -2.03217e-16 0.0 -3.88251e-19 1.39107 -9.71797 11.2606 -0.0137954 24.3472 0.651119 -11.2968 -17.4267 -27.4165 2.03217e-16 0.0 3.88251e-19 1.53673 -7.76722 -10.4218 0.0653246 22.901 -0.452096 5.12272 -11.3299 16.4213
